PathFileType	4	(X/Y/Z)	TRC_standard
DataRate	CameraRate	NumFrames	NumMarkers	Units	OrigDataRate	OrigDataStartFrame	OrigNumFrames
100.00	100.00	       6	33	mm	100.00	1118	       2234
Frame#	Time	T10			C7			CLAV			RACR1			LACR1			RPSI			LPSI			RASI			LASI			LTH2			LTH1			RTH2			RTH3			RTH1			RLFC			RTB1			RTB3			RTB2			LLFC			LTB1			LTB3			LTB2			LLMAL			LMMAL			RLMAL			RCAL			RMT5			RMT1			LMT5			LMT1			LTH3			LCAL			LToe			
		X1	Y1	Z1	X2	Y2	Z2	X3	Y3	Z3	X4	Y4	Z4	X5	Y5	Z5	X6	Y6	Z6	X7	Y7	Z7	X8	Y8	Z8	X9	Y9	Z9	X10	Y10	Z10	X11	Y11	Z11	X12	Y12	Z12	X13	Y13	Z13	X14	Y14	Z14	X15	Y15	Z15	X16	Y16	Z16	X17	Y17	Z17	X18	Y18	Z18	X19	Y19	Z19	X20	Y20	Z20	X21	Y21	Z21	X22	Y22	Z22	X23	Y23	Z23	X24	Y24	Z24	X25	Y25	Z25	X26	Y26	Z26	X27	Y27	Z27	X28	Y28	Z28	X29	Y29	Z29	X30	Y30	Z30	X31	Y31	Z31	X32	Y32	Z32	X33	Y33	Z33	
1118	11.170000	710.415771	1239.587769	-568.793274	705.524048	1504.237305	-462.832855	723.256592	1354.490845	-356.889069	550.782104	1450.370117	-426.275085	887.840698	1453.857544	-454.015533	647.201416	1027.406982	-623.539246	735.481140	1026.871216	-628.658203	586.108826	999.244019	-385.858337	839.371704	996.523682	-399.776581	891.899719	724.110229	-397.676422	866.880615	869.643005	-404.655548	593.350464	720.603333	-367.364716	541.028198	784.812927	-398.303986	607.804077	836.824280	-362.727020	589.822815	502.984009	-433.976196	643.098877	393.618469	-404.929871	621.219299	315.125397	-430.990570	649.573181	264.946533	-429.491821	882.882813	510.502960	-430.459778	841.633728	394.179352	-449.004974	863.205505	359.509827	-515.840698	823.888550	313.557831	-540.209229	835.769531	212.571411	-723.905090	781.829163	227.357574	-782.660889	642.487244	76.510284	-498.542297	682.827637	38.372826	-565.654053	647.976013	42.950703	-390.705597	727.171997	51.097244	-367.606476	846.267578	89.116577	-697.190369	781.112488	80.300842	-666.706116	910.693542	785.479248	-446.293854	0.000000	0.000000	0.000000	0.000000	0.000000	0.000000	
1119	11.180000	709.524109	1239.887939	-569.100220	705.063599	1504.441040	-462.770081	723.292480	1354.625366	-357.171417	550.497131	1450.675415	-425.763519	887.433228	1454.036011	-454.952240	646.999207	1027.528320	-623.994019	735.254150	1026.839111	-629.108459	585.443726	999.352539	-386.279510	838.707031	996.987976	-400.057678	891.770020	726.268799	-393.861389	866.414307	871.152954	-403.831451	592.715149	719.568909	-370.266632	540.551086	784.270142	-400.497253	607.068054	835.992310	-364.089020	589.343994	502.529510	-439.577698	642.590088	392.982239	-411.244141	620.857971	314.648987	-437.831665	649.311096	264.496887	-436.607422	882.742859	512.136475	-422.209259	841.649780	395.657257	-438.604950	863.295410	359.953186	-504.870270	824.030884	313.564972	-528.369324	835.941284	209.224915	-710.356140	781.634277	220.569260	-770.052063	642.598694	76.593834	-506.755432	682.933411	38.576595	-573.963135	647.815125	42.928944	-399.005737	727.127808	50.940311	-375.643188	849.320862	88.605072	-677.211914	784.433594	79.701042	-645.814697	910.768494	786.847229	-443.544769	0.000000	0.000000	0.000000	0.000000	0.000000	0.000000	
1120	11.190000	708.693420	1240.115234	-569.476501	704.640808	1504.572266	-462.781158	723.344482	1354.694702	-357.519989	550.243225	1450.904907	-425.348114	887.057800	1454.140625	-455.944366	646.911255	1027.605347	-624.521606	735.140808	1026.780029	-629.604919	584.808350	999.382874	-386.803650	838.075195	997.382507	-400.372864	891.548279	728.393555	-390.256500	865.966980	872.575073	-403.078796	592.140686	718.521973	-373.245453	540.136841	783.695068	-402.780182	606.384399	835.131470	-365.532196	588.925781	502.084869	-445.243561	642.144775	392.354675	-417.608734	620.551453	314.185791	-444.713043	649.101257	264.060883	-443.765503	882.472717	513.800842	-414.390594	841.585815	397.170593	-428.419586	863.353638	360.303589	-493.962952	824.206665	313.396790	-516.420837	836.210876	205.235001	-696.259399	781.543335	212.987869	-756.722412	642.726196	76.695137	-514.981445	683.057007	38.796837	-582.287109	647.671814	42.914181	-407.324249	727.088440	50.791683	-383.703735	852.481934	87.709480	-656.766418	787.909851	78.791008	-624.409058	910.844788	788.154785	-440.984894	0.000000	0.000000	0.000000	0.000000	0.000000	0.000000	
1121	11.200000	707.925415	1240.269775	-569.915039	704.256226	1504.631470	-462.860138	723.409485	1354.699341	-357.926544	550.019958	1451.058960	-425.022430	886.714661	1454.171387	-456.980042	646.933777	1027.640015	-625.115234	735.137817	1026.694214	-630.141479	584.204163	999.335815	-387.423676	837.477234	997.705078	-400.717377	891.242310	730.458313	-386.875092	865.540344	873.900085	-402.394714	591.628662	717.463745	-376.291565	539.786316	783.087891	-405.143127	605.754089	834.241516	-367.049438	588.569580	501.648346	-450.960663	641.766235	391.734497	-424.012482	620.302002	313.733948	-451.623962	648.946289	263.636444	-450.957001	882.075928	515.472656	-407.028687	841.443481	398.707794	-418.476044	863.381287	360.558319	-483.137146	824.415955	313.060089	-504.381348	836.585449	200.644058	-681.601440	781.576050	204.693024	-742.636475	642.870972	76.815155	-523.217041	683.196716	39.035202	-590.623108	647.545471	42.907539	-415.658691	727.054199	50.650265	-391.785919	855.710999	86.471397	-635.920593	791.494141	77.623032	-602.575378	910.917542	789.391052	-438.616486	0.000000	0.000000	0.000000	0.000000	0.000000	0.000000	
1122	11.210000	707.221436	1240.352051	-570.408691	703.910706	1504.619385	-463.000671	723.484619	1354.639648	-358.382843	549.827209	1451.138184	-424.779602	886.403992	1454.128418	-458.047363	647.061707	1027.632935	-625.768250	735.240540	1026.580933	-630.712708	583.632935	999.212341	-388.132294	836.914612	997.953735	-401.087219	890.861511	732.436096	-383.729919	865.136902	875.119263	-401.776794	591.180725	716.395081	-379.395752	539.500305	782.448486	-407.576630	605.178284	833.321777	-368.633911	588.276184	501.217590	-456.715576	641.457031	391.120270	-430.444336	620.111389	313.291351	-458.553680	648.848755	263.221436	-458.172974	881.557983	517.127869	-400.142731	841.223511	400.257172	-408.798920	863.378479	360.716003	-472.409485	824.654785	312.566132	-492.270538	837.068481	195.507019	-666.374268	781.747864	195.773270	-727.771545	643.034546	76.954842	-531.459351	683.351074	39.293266	-598.968750	647.435913	42.910168	-424.007050	727.025940	50.515083	-399.887726	858.969360	84.943047	-614.728394	795.137512	76.258919	-580.387756	910.982849	790.545410	-436.436768	0.000000	0.000000	0.000000	0.000000	0.000000	0.000000	
1123	11.220000	706.582703	1240.363037	-570.950562	703.605042	1504.537354	-463.196167	723.567810	1354.515625	-358.880646	549.664795	1451.142944	-424.612366	886.126404	1454.012085	-459.134674	647.288818	1027.584473	-626.474548	735.443298	1026.439331	-631.314026	583.096741	999.013306	-388.921936	836.389099	998.126770	-401.479095	890.416504	734.299927	-380.832428	864.759216	876.224609	-401.223022	590.798584	715.316467	-382.549072	539.279724	781.776611	-410.071014	604.658203	832.371460	-370.278961	588.046387	500.789886	-462.494751	641.219238	390.510437	-436.893311	619.981079	312.855865	-465.491913	648.810730	262.813477	-465.404541	880.926636	518.742249	-393.746338	840.925781	401.806946	-399.410248	863.344177	360.777039	-461.795593	824.915344	311.930206	-480.110596	837.659668	189.890289	-650.576538	782.069885	186.324921	-712.118408	643.218628	77.115135	-539.705688	683.518738	39.572636	-607.322205	647.343689	42.923126	-432.367950	727.004944	50.385216	-408.007568	862.218933	83.185699	-593.233093	798.789673	74.767891	-557.910278	911.037964	791.606995	-434.440765	0.000000	0.000000	0.000000	0.000000	0.000000	0.000000	
